<svg xmlns="http://www.w3.org/2000/svg" xmlns:xlink="http://www.w3.org/1999/xlink" width="907.27" height="753.764" viewBox="0 0 907.27 753.764">
  <defs>
    <linearGradient id="linear-gradient" x1="0.502" y1="0.439" x2="1.902" y2="1.81" gradientUnits="objectBoundingBox">
      <stop offset="0" stop-color="#a64fab"/>
      <stop offset="1" stop-color="#410921"/>
    </linearGradient>
    <linearGradient id="linear-gradient-2" x1="1.305" y1="1.854" x2="0.162" y2="-0.137" gradientUnits="objectBoundingBox">
      <stop offset="0" stop-color="#a64fab"/>
      <stop offset="1" stop-color="#d9c7cf"/>
    </linearGradient>
    <linearGradient id="linear-gradient-3" x1="0.135" y1="0.049" x2="0.773" y2="1.068" gradientUnits="objectBoundingBox">
      <stop offset="0" stop-color="#0054b0"/>
      <stop offset="1" stop-color="#0f2a46"/>
    </linearGradient>
    <linearGradient id="linear-gradient-4" x1="0.848" y1="1.212" x2="0.017" y2="-0.072" gradientUnits="objectBoundingBox">
      <stop offset="0" stop-color="#0054b0"/>
      <stop offset="1" stop-color="#cee5ff"/>
    </linearGradient>
    <linearGradient id="linear-gradient-5" x1="-0.874" y1="-0.845" x2="0.891" y2="1.125" gradientUnits="objectBoundingBox">
      <stop offset="0" stop-color="#a64fab"/>
      <stop offset="1" stop-color="#410945"/>
    </linearGradient>
    <linearGradient id="linear-gradient-6" x1="0.922" y1="1.607" x2="-0.05" y2="-0.125" xlink:href="#linear-gradient-2"/>
    <linearGradient id="linear-gradient-7" y1="0.498" x2="1" y2="0.498" gradientUnits="objectBoundingBox">
      <stop offset="0" stop-color="#0d3445"/>
      <stop offset="1" stop-color="#11455c"/>
    </linearGradient>
    <linearGradient id="linear-gradient-8" x1="1.144" y1="0.998" x2="0.297" y2="0.453" gradientUnits="objectBoundingBox">
      <stop offset="0" stop-color="#4f5cab"/>
      <stop offset="1" stop-color="#1e2a74"/>
    </linearGradient>
    <linearGradient id="linear-gradient-9" x1="0.008" y1="0.491" x2="1.005" y2="0.491" xlink:href="#linear-gradient-7"/>
    <linearGradient id="linear-gradient-10" x1="1.479" y1="0.452" x2="0.22" y2="0.52" xlink:href="#linear-gradient-8"/>
    <linearGradient id="linear-gradient-11" x1="0.456" y1="1.2" x2="0.599" y2="-0.089" gradientUnits="objectBoundingBox">
      <stop offset="0" stop-color="#88a2ae"/>
      <stop offset="1" stop-color="#09232e"/>
    </linearGradient>
    <linearGradient id="linear-gradient-12" x1="0.719" y1="0.782" x2="0.271" y2="0.348" gradientUnits="objectBoundingBox">
      <stop offset="0" stop-color="#0054b0"/>
      <stop offset="1" stop-color="#94b9db"/>
    </linearGradient>
    <linearGradient id="linear-gradient-13" x1="0.402" y1="-0.093" x2="0.761" y2="1.774" xlink:href="#linear-gradient-7"/>
    <linearGradient id="linear-gradient-14" x1="-0.006" y1="0.977" x2="0.987" y2="0.977" gradientUnits="objectBoundingBox">
      <stop offset="0" stop-color="#c4d1d6"/>
      <stop offset="1" stop-color="#4d7485"/>
    </linearGradient>
    <linearGradient id="linear-gradient-15" x1="0.151" y1="-0.019" x2="0.638" y2="0.946" gradientUnits="objectBoundingBox">
      <stop offset="0" stop-color="#88a2ae"/>
      <stop offset="1" stop-color="#94b9db"/>
    </linearGradient>
    <linearGradient id="linear-gradient-16" x1="0.749" y1="1.139" x2="0.307" y2="0.227" gradientUnits="objectBoundingBox">
      <stop offset="0" stop-color="#ffaf20"/>
      <stop offset="1" stop-color="#805810"/>
    </linearGradient>
    <linearGradient id="linear-gradient-17" x1="0.069" y1="5.226" x2="1.046" y2="5.226" xlink:href="#linear-gradient-14"/>
    <linearGradient id="linear-gradient-18" x1="0.261" y1="0.004" x2="0.661" y2="0.997" xlink:href="#linear-gradient-15"/>
    <linearGradient id="linear-gradient-19" x1="0.899" y1="1.025" x2="0.181" y2="0.234" xlink:href="#linear-gradient-16"/>
    <linearGradient id="linear-gradient-20" x1="0.317" y1="-0.106" x2="0.533" y2="0.778" xlink:href="#linear-gradient-7"/>
    <linearGradient id="linear-gradient-21" x1="1.846" y1="0.209" x2="0.947" y2="-0.587" gradientUnits="objectBoundingBox">
      <stop offset="0" stop-color="#300933"/>
      <stop offset="0.22" stop-color="#a64fab"/>
      <stop offset="0.59" stop-color="#d997dd"/>
      <stop offset="0.87" stop-color="#b2c0c6"/>
      <stop offset="1" stop-color="#c4d1d6"/>
    </linearGradient>
    <linearGradient id="linear-gradient-22" x1="0.631" y1="1.009" x2="0.389" y2="0.008" xlink:href="#linear-gradient-7"/>
  </defs>
  <g id="Questions_And_Answers" data-name="Questions And Answers" transform="translate(-30.321 -0.019)">
    <path id="Path_378" data-name="Path 378" d="M1340.51,559.532a207.721,207.721,0,0,0-55.656-20.16,274.7,274.7,0,0,0-48.26-5.712,317.849,317.849,0,0,0-60.416,4.435c-25.778,4.368-51.262,11.625-76.893,14.649s-53.825,1.344-76.015-10.886c-25.411-14.044-39.618-39.849-45.55-65.72s-4.76-52.549-6.518-78.958c-1.1-17.4-4.541-36.556-19.773-47.778a77.264,77.264,0,0,0-32.953-11.558c-17.869-3.158-36.617-5.309-54.119,0a168.385,168.385,0,0,0-33.833,17.875A223.518,223.518,0,0,1,784.1,376.551c-17.136,5.443-38.3,4.771-54.485,10.617-24.386,8.736-46.575,44.284-47.161,67.2-.879,39.311,44.744,65.72,64.224,101.2,17.734,33.5,11.5,73.529-15.745,101.134-8.641,8.6-19.04,15.792-26.656,25-19.919,24.124-16.624,59,1.391,84.133s48.552,41.8,80.189,52.348a178.827,178.827,0,0,0,74.476,10.214,127.07,127.07,0,0,0,19.846-3.763c65.4-17.337,110.946-80.638,179.051-96.026l4.1-.874c46.429-9.273,93.078,4.771,140.166,17.068,34.712,9.072,69.643,17.2,104.941,14.515a167.759,167.759,0,0,0,62.467-17.606,113.8,113.8,0,0,0,14.646-9,71.686,71.686,0,0,0,18.161-17.808,70.683,70.683,0,0,0,10.839-29.7C1421.8,635.8,1388.7,585.807,1340.51,559.532ZM838.069,444.69a120.7,120.7,0,0,0,24.02-5.846c7.05-3.689,11.025-10.879,10.106-18.278,0-1.949-3.149-22.377,3.954-20.966a29.453,29.453,0,0,1,16.917,7.123c4.1,4.838,3.149,11.626,6.151,17,5.346,9.945,21.97,12.969,27.169,22.848a13.662,13.662,0,0,1-3.369,16.732,21.61,21.61,0,0,1-19.846,3.629c-5.126-1.68-9.081-5.309-14.207-6.72-8.136-2.408-17.035.314-21.969,6.72-1.758,2.486-2.93,5.712-6.225,6.72a11.453,11.453,0,0,1-5.639,0,107.642,107.642,0,0,1-18.674-4.636,18.41,18.41,0,0,1-11.937-8.669C822.177,453.224,830.086,446.908,838.069,444.69Zm159.718,238.89a38.777,38.777,0,0,1-27.022,14.851c-10.692,1.949-21.97,2.016-32.441,4.771-28.194,7.257-45.7,31.18-62.247,52.549a37.573,37.573,0,0,1-9.886,9.811,26.159,26.159,0,0,1-4.906,2.151,47.759,47.759,0,0,1-21.969,0,140.672,140.672,0,0,1-39.106-12.767,30.009,30.009,0,0,1-16.184-14.381c-3.589-10.012,5.053-20.5,15.232-26.14s21.97-8.467,31.563-14.784a27.046,27.046,0,0,0,3.222-2.486,38.976,38.976,0,0,0,14.646-29.567,12,12,0,0,0-1.171-4.637c-3.515-9.273-14.134-24.863-12.084-28.156,3.661-5.779,19.479,1.545,25.484,4.569l1.318.6c16.917,8.669,33.979,26.275,55.656,22.31a113.248,113.248,0,0,0,25.631-11.356,49.52,49.52,0,0,1,41.815-.672c13.086,6.354,18.536,20.947,12.449,33.331Z" transform="translate(-619.472 -332.848)" fill="#e7f0ef"/>
    <path id="Path_379" data-name="Path 379" d="M873.8,896.815a268.6,268.6,0,0,1-34.053-4.636A258.4,258.4,0,0,1,770.322,869.6c-40.278-20.894-70.328-55.128-84-95.69h0c-11.424-34.54-11.131-73.918.952-121.428,2.051-8.2,4.614-16.06,7.323-23.721,8.641-26.879,16.843-52.348,2.344-81.579-1.465-2.957-3.149-5.914-4.76-8.736a69.288,69.288,0,0,1-10.032-24.729c-2.49-21.436,16.477-39.983,36.616-47.039,21.164-7.795,45.038-6.72,65.908-5.577l95.2,4.637a67.813,67.813,0,0,0,23.214-1.479,55.033,55.033,0,0,0,21.969-15.725,197.556,197.556,0,0,0,39.4-59.134c1.025-2.352,2.05-4.838,3.075-7.257a84.982,84.982,0,0,1,20.212-33.6,65.208,65.208,0,0,1,47.527-13.843h3.076a182.159,182.159,0,0,1,51.262,14.918c27.1,11.021,56.974,24.931,68.911,50.936,8.2,17.875,6.005,37.9,3.954,57.186a60.72,60.72,0,0,1-.805,7.324c-5.127,51.138,4.906,89.979,29.878,115.313a207.364,207.364,0,0,0,43.939,31.113c21.97,13.036,45.257,26.476,56.389,48.584a81.585,81.585,0,0,1,4.541,54.767,39.286,39.286,0,0,1-7.323,17.135,45.107,45.107,0,0,1-14.207,10.147,199.884,199.884,0,0,1-66.714,20.764c-10.545,1.411-21.383,1.949-31.856,2.486a342.347,342.347,0,0,0-38.813,3.561,159.6,159.6,0,0,0-74.4,33.6,316.5,316.5,0,0,0-23.288,22.243c-4.687,4.838-9.593,9.878-14.646,14.582-40.351,37.967-92.858,59-143.974,57.724C878.559,897.084,876.215,896.949,873.8,896.815ZM688.157,773.371c13.506,40.146,43.247,74.025,83.118,94.682A256.99,256.99,0,0,0,840.185,890.5a246.755,246.755,0,0,0,40.789,4.838c50.6,1.277,102.525-19.622,142.583-57.186,4.98-4.7,9.813-9.744,14.646-14.515a307.355,307.355,0,0,1,23.507-22.444,160.872,160.872,0,0,1,75.283-34,334.285,334.285,0,0,1,39.032-3.629c10.472-.538,21.237-1.075,31.709-2.486a198.993,198.993,0,0,0,65.908-20.563,42.43,42.43,0,0,0,13.621-9.677,38.181,38.181,0,0,0,7.323-16.4,80.277,80.277,0,0,0-4.393-53.758c-10.912-21.638-32.588-34.338-55.656-47.845a210.862,210.862,0,0,1-44.451-31.382c-25.265-25.737-35.517-64.981-30.318-116.656a62.254,62.254,0,0,1,.806-7.325c2.05-19.152,4.174-38.908-3.808-56.38-11.644-25.4-41.156-39.109-67.886-50a182.166,182.166,0,0,0-50.6-14.783,65.017,65.017,0,0,0-49.065,13.44,84.513,84.513,0,0,0-19.773,32.927c-.953,2.486-1.978,4.906-3,7.325a202.616,202.616,0,0,1-39.765,59.672,57.141,57.141,0,0,1-23.14,16.2,72.043,72.043,0,0,1-23.874,1.612l-95.2-4.7c-20.871-1.008-44.6-2.15-65.323,5.443-19.333,7.056-37.641,25-35.225,45.493a65.248,65.248,0,0,0,9.741,24.057c1.61,2.89,3.295,5.914,4.832,8.87,14.646,29.836,6.518,55.573-2.27,82.788-2.49,7.661-4.98,15.523-7.323,23.654-11.937,47.039-12.3,86.283-.952,120.487Z" transform="translate(-647.66 -334.34)" fill="#c9eaf1"/>
    <path id="Path_380" data-name="Path 380" d="M896.581,434.159c-236.318,8.467-316.8,94.683-58.585,130.9s231.266-30.911,358.835-36.623,139.14,11.625,31.417,49.324S1187.9,680.24,1326.3,606.994s104.795-65.115,215.374-89.172c150.711-32.793-131.3-112.692-419.983-104.628S896.581,434.159,896.581,434.159Z" transform="translate(-646.057 113.33)" fill="#e7f0ef"/>
    <path id="Path_381" data-name="Path 381" d="M824.756,464.97q-37.049,5.208-74.55,6.719a60.581,60.581,0,0,0-23.288,4.771c-7.033,3.035-10.722,10.229-8.787,17.136,3.295,9,16.037,13.439,26.949,15.859a71.419,71.419,0,0,0,17.869,2.419,114.441,114.441,0,0,0,27.755-7.459,81.947,81.947,0,0,1,39.618-1.143c17.868,3.831,34.858,13.44,52.946,14.045a20.309,20.309,0,0,0,14.646-3.562c5.346-4.838,2.857-13.44-1.244-19.622a47.9,47.9,0,0,1-9.959-20.16,6.33,6.33,0,0,1,1.464-4.7,10.971,10.971,0,0,1,5.053-2.217,65.575,65.575,0,0,0,21.97-7.526,13.02,13.02,0,0,0,6.077-8.5,12.2,12.2,0,0,0-2.415-9.917,31.55,31.55,0,0,0-24.093-6.719c-8.422.739-10.106,4.7-15.232,9.273C866.279,455.764,844.016,461.543,824.756,464.97Z" transform="translate(-397.011 236.269)" fill="#e7f0ef"/>
    <path id="Path_382" data-name="Path 382" d="M958.434,630.607a76.174,76.174,0,0,1-28.121,20.16,93.443,93.443,0,0,1-36.176,6.72,107.8,107.8,0,0,1-47.967-10.416,205.062,205.062,0,0,1-48.992-36.96,142.458,142.458,0,0,1-57.633-19.084,110.932,110.932,0,0,1-39.472-39.445,104.709,104.709,0,0,1-14.134-53.759,103.575,103.575,0,0,1,16.844-57.857,115.592,115.592,0,0,1,46.648-40.319,159.435,159.435,0,0,1,133.5,0,116.855,116.855,0,0,1,46.575,40.319c24.756,39.082,22.293,87.841-6.3,124.653-15.383,19.048-37.023,33.063-61.735,39.983a61.888,61.888,0,0,0,16.477,11.693,41.1,41.1,0,0,0,17.209,3.561A53.33,53.33,0,0,0,933.9,603.661ZM751.482,534.178a66.39,66.39,0,0,0,26.656,24.8,85.754,85.754,0,0,0,76.234,0,66.807,66.807,0,0,0,26.656-24.8,72.112,72.112,0,0,0,0-72.373,67,67,0,0,0-26.656-24.863,86.314,86.314,0,0,0-76.233,0,66.5,66.5,0,0,0-26.657,24.864,72.11,72.11,0,0,0,0,72.373Z" transform="translate(-597.403 -44.68)" fill="url(#linear-gradient)"/>
    <path id="Path_383" data-name="Path 383" d="M956.7,632.346a75.358,75.358,0,0,1-28.047,20.159,93.544,93.544,0,0,1-36.616,6.72,107.478,107.478,0,0,1-47.893-10.416,205.068,205.068,0,0,1-48.992-36.959,142.068,142.068,0,0,1-57.633-19.084,110.313,110.313,0,0,1-39.472-39.446,108.157,108.157,0,0,1,2.709-111.415,114.93,114.93,0,0,1,46.576-40.319,159.435,159.435,0,0,1,133.5,0c30.866,15.634,52.951,42.654,60.666,74.221s.319,64.654-20.316,90.886c-15.4,19.034-37.032,33.046-61.735,39.983a60.72,60.72,0,0,0,16.477,11.692,41.02,41.02,0,0,0,17.137,3.562,53.8,53.8,0,0,0,38.812-16.195Zm-206.952-96.43a67.16,67.16,0,0,0,26.73,24.864,86.157,86.157,0,0,0,76.161,0,67.17,67.17,0,0,0,26.73-24.864,72.54,72.54,0,0,0,0-72.373,67.166,67.166,0,0,0-26.729-24.864,86.157,86.157,0,0,0-76.162,0,67.16,67.16,0,0,0-26.73,24.863,72.539,72.539,0,0,0,0,72.373Z" transform="translate(-610.166 -33.584)" fill="url(#linear-gradient-2)"/>
    <path id="Path_384" data-name="Path 384" d="M862.178,548.487l-14.646,12.835-4.175-28.694a93.619,93.619,0,0,1-82.239,10.886,49.1,49.1,0,0,1-21.165-13.91,30.187,30.187,0,0,1-7.689-20.16,35.9,35.9,0,0,1,8.128-23.251,79.057,79.057,0,0,1,26-19.219,59.845,59.845,0,0,1-12.157-15.187,31.362,31.362,0,0,1-3.808-14.918,29.951,29.951,0,0,1,6.005-18.345,39.412,39.412,0,0,1,16.99-12.3,68.359,68.359,0,0,1,25.338-4.368,53.862,53.862,0,0,1,32.368,8.87,28.035,28.035,0,0,1,12.23,23.923,29.271,29.271,0,0,1-7.323,19.488,71.072,71.072,0,0,1-22.921,16.195l28.34,24.191c2.856-5.376-8.349-2.688-6.664-9.273,0-1.344,14.133-11.491,14.646-12.835l27.682,7.929a89.428,89.428,0,0,1-14.133,32.323l18.161,15.455Zm-39.033-33.129-37.421-32.121a49.377,49.377,0,0,0-14.646,10.752,18.035,18.035,0,0,0-4.467,12.029,14.87,14.87,0,0,0,7.322,12.835,37.212,37.212,0,0,0,20.213,4.838,51.93,51.93,0,0,0,28.926-8.333ZM786.53,427.126a11.552,11.552,0,0,0-4.54,9.341,14.508,14.508,0,0,0,2.416,8A56.37,56.37,0,0,0,794,454.543a62.538,62.538,0,0,0,15.745-9.878,12.931,12.931,0,0,0,4.393-9.408,10.3,10.3,0,0,0-4.027-8.534,17.017,17.017,0,0,0-11.278-3.293,19.016,19.016,0,0,0-12.23,3.7Z" transform="translate(-304.447 51.418)" fill="url(#linear-gradient-3)"/>
    <path id="Path_385" data-name="Path 385" d="M859.735,550.4l-18.674-15.859A93.461,93.461,0,0,1,758.9,545.424a49.411,49.411,0,0,1-21.237-13.91,30.428,30.428,0,0,1-7.323-20.159,35.9,35.9,0,0,1,8.128-23.251,79.026,79.026,0,0,1,26-19.219,59.2,59.2,0,0,1-12.157-15.12A31.356,31.356,0,0,1,748.5,438.78a29.575,29.575,0,0,1,6-18.278,37.958,37.958,0,0,1,16.989-12.3,67.008,67.008,0,0,1,25.339-4.435,53.866,53.866,0,0,1,32.368,8.87,27.96,27.96,0,0,1,12.156,23.923,29.465,29.465,0,0,1-7.323,19.487,71.815,71.815,0,0,1-23.14,16.464l28.34,24.191a86.519,86.519,0,0,0,7.762-22.109l27.682,7.93a89.432,89.432,0,0,1-14.134,32.323L878.7,530.3ZM820.7,517.268l-37.495-32.121A48.872,48.872,0,0,0,768.562,495.9a18.039,18.039,0,0,0-4.467,12.029,14.677,14.677,0,0,0,7.323,12.835,36.9,36.9,0,0,0,20.14,4.838,52.03,52.03,0,0,0,29.292-8.333Zm-36.616-88.232a11.553,11.553,0,0,0-4.54,9.341,14.506,14.506,0,0,0,2.416,8,55.4,55.4,0,0,0,9.52,10.08,59.874,59.874,0,0,0,15.745-9.878,12.947,12.947,0,0,0,4.467-9.408,10.3,10.3,0,0,0-4.027-8.534,17.02,17.02,0,0,0-11.278-3.293,18.691,18.691,0,0,0-12.01,3.7Z" transform="translate(-316.65 62.343)" fill="url(#linear-gradient-4)"/>
    <path id="Path_386" data-name="Path 386" d="M945.462,561.917H836.641l-20.8,46.232-17.576,15.59-38.007-15.59,86.926-199.512,17.576-15.657h53.532l104.868,215.035-17.576,15.59L966.26,608.149ZM928.4,524.084l-37.2-82.318L854,524.084Z" transform="translate(-127.393 0.961)" fill="url(#linear-gradient-5)"/>
    <path id="Path_387" data-name="Path 387" d="M943.064,564.237H834.241l-20.8,46.1H757.86L862.362,395.3h53.606l104.795,215.035H963.934ZM926,526.4l-37.2-82.318L851.67,526.4Z" transform="translate(-142.569 14.231)" fill="url(#linear-gradient-6)"/>
    <path id="Path_388" data-name="Path 388" d="M956.557,491.824c0-.739.732-1.478,1.025-2.15a52.936,52.936,0,0,0,1.464-15.389c.246-7.88-4.183-15.262-11.571-19.286a7.584,7.584,0,0,0-2.27-1.075h-.513A77.142,77.142,0,0,0,916.5,443.643a25.991,25.991,0,0,1-4.467-5.712,12.575,12.575,0,0,0,5.711,0,5.466,5.466,0,0,0,2.637-1.613,7.923,7.923,0,0,0,.953-5.846,15.087,15.087,0,0,1,1.61-9.072c1.319-2.352.879-3.36,2.2-5.712a6.253,6.253,0,0,0,.512-6.72c-1.245-2.755-3.149-4.3-6-3.091-1.758.739-1.831-.4-3.735-.6s-2.49-1.613-2.856-3.024a16.431,16.431,0,0,0-.952-4.166,9.534,9.534,0,0,0-6.079-3.7,6.81,6.81,0,0,0-3.662-.47c-3.222.672-3.662,2.554-7.323,3.024-2.2.336-3.515-.941-5.639-1.546a7.907,7.907,0,0,0-6.518.4c-1.318,1.411-5.712,3.7-5.053,5.443a28.085,28.085,0,0,1,1.977,4.3c0,1.479-1.61,2.957-2.562,4.167-2.856,3.7,1.831,7.728,5.346,8.937A29.941,29.941,0,0,0,890.5,438.4a6.112,6.112,0,0,0,5.127,1.546,14.468,14.468,0,0,1-2.783,5.443,66.669,66.669,0,0,0-16.7,6.72c-6.224-4.1-12.6-8.131-18.235-12.634A168.193,168.193,0,0,0,834.7,423.551l.587-18.144,21.969-37.093A262.707,262.707,0,0,0,809,362.4l-29.8,73.381,30.831,13.037,6.444-10.886a234.455,234.455,0,0,0,23.8,28.089A265.292,265.292,0,0,0,878.2,497.536a152.194,152.194,0,0,1,4.687,24.057l-80.555-41.058a18.693,18.693,0,0,0-1.684-8.87c-5.869-12.051-20.552-18.256-34.347-14.515a22.4,22.4,0,0,0-13.987,11.625,20.083,20.083,0,0,0-.512,17.606c5.63,12.119,20.361,18.34,34.053,14.381a23.859,23.859,0,0,0,10.545-6.72,29.05,29.05,0,0,1,3.075,1.949h0c26.364,17.808,54.631,38.773,74.4,47.576-.732.807-1.465,1.546-2.344,2.352-50.164-13.44-78.944-14.448-86.047-3.763a72.83,72.83,0,0,0-9.154,40.319c34.712,9.475,69.643,17.942,104.941,15.12a160.3,160.3,0,0,0,62.467-18.346,108.833,108.833,0,0,0,14.646-9.34A264.788,264.788,0,0,0,956.557,491.824ZM821.665,584.693l-2.857-7.392,3.515,2.553Z" transform="translate(-192.166 -173.952)" fill-rule="evenodd" opacity="0.1"/>
    <path id="Path_389" data-name="Path 389" d="M1000.011,535.826,957.9,513.449a64.192,64.192,0,0,0-4.175-61.151,62.6,62.6,0,0,0-23.8-20.16c0-5.914-11.5-18.614-21.237-7.526a149.36,149.36,0,0,0-90.368,12.163,104.73,104.73,0,0,0-12.3-4.771,13.806,13.806,0,0,1-5.2-10.147,7.718,7.718,0,0,0,5.2-1.747,48.577,48.577,0,0,0,10.619-21.369,16.108,16.108,0,0,0,14.06-6.72,24.606,24.606,0,0,0,4.322-15.926,12.494,12.494,0,0,0-1.245-5.914,14.694,14.694,0,0,0-12.23-5.443,15.946,15.946,0,0,0-4.393,0,17.213,17.213,0,0,0-5.272,2.89,30.651,30.651,0,0,1-10.546,6.719,37.777,37.777,0,0,1-10.326.47,15.653,15.653,0,0,0-9.886,2.352,12.781,12.781,0,0,0-4.1,11.088,13.524,13.524,0,0,1-.806,6.72c-1.9,3.9-7.323,5.443-9.52,9.341a9.015,9.015,0,0,0,4.687,11.357,31.465,31.465,0,0,0,13.841,2.957A18.765,18.765,0,0,1,774.9,427.5a106.81,106.81,0,0,0-22.63,3.158,121.685,121.685,0,0,0-19.552,25.267c-.806,1.344-1.685,2.621-2.49,4.032l1.318.672c16.917,9,33.979,27.35,55.656,23.251,9.446-1.747,17.063-7.862,25.631-11.894a47.427,47.427,0,0,1,41.816-.672c13.011,6.983,18.291,21.78,12.3,34.473a38.48,38.48,0,0,1-27.023,15.456c-10.692,2.083-21.97,2.15-32.442,4.973-28.194,7.593-45.7,32.524-62.247,54.767a38.138,38.138,0,0,1-9.886,10.214,26.76,26.76,0,0,1-4.906,2.285,304.88,304.88,0,0,0,18.893,59.4c65.4-18.076,110.947-83.864,179.052-100.058l4.1-.941c2.27-2.352,4.321-4.7,6.3-7.056h58.585a5.42,5.42,0,0,0,4.5-3.719A4.868,4.868,0,0,0,1000.011,535.826Zm-288.459-39.58h0a167.41,167.41,0,0,0-8.422,24.192,40.992,40.992,0,0,0,14.646-30.844,12.819,12.819,0,0,0-1.172-4.839c-1.611,3.562-3.368,7.661-5.052,11.491Z" transform="translate(-488.635 -161.44)" fill-rule="evenodd" opacity="0.1"/>
    <path id="Path_391" data-name="Path 391" d="M746.623,432.156c-2.416,2.217-4.614,4.234-6.444,6.182a41.26,41.26,0,0,0-10.693,16.195c-2.2,7.8.733,13.44-.732,22.982a8.572,8.572,0,0,1,0,1.277v.739l-.732-1.075-.732-1.008-16.038-23.385-5.492-8a28.214,28.214,0,0,1,10.326-7.056,50.371,50.371,0,0,0,16.55-8.6,64.055,64.055,0,0,0,7.323-6.249l1.465,1.612Z" transform="translate(-472.005 179.306)" fill="#ffb26c" fill-rule="evenodd"/>
    <path id="Path_392" data-name="Path 392" d="M747.541,468.106a7.2,7.2,0,0,1-3.369.537,41.433,41.433,0,0,1-11.644-2.285,1.437,1.437,0,0,1-.879-.336l-2.563-1.142a43.755,43.755,0,0,1-18.6-21.369c-1.831-3.7-3.515-7.459-5.345-10.886a14.332,14.332,0,0,1,14.646-6.048h0a32.839,32.839,0,0,0,5.054,8.6,21.528,21.528,0,0,0,8.422,6.72l.879.336C731.21,456.414,750.1,465.687,747.541,468.106Z" transform="translate(-475.925 191.739)" fill-rule="evenodd" fill="url(#linear-gradient-7)"/>
    <path id="Path_393" data-name="Path 393" d="M881.828,536.2q-18.747,32.86-154.3,113.834a49.3,49.3,0,0,1-8.422-3.9,23.265,23.265,0,0,1-7.836-7.929,17.1,17.1,0,0,1-1.977-10.953L833.788,522.563a151.732,151.732,0,0,1-33.1-60.479c-3.076-9.408-5.785-19.084-9.081-29.231-5.053-49.861-.952-43.881,34.273-45.023Q896.841,517.926,881.828,536.2Z" transform="translate(-450.934 -28.496)" fill-rule="evenodd" fill="url(#linear-gradient-8)"/>
    <path id="Path_394" data-name="Path 394" d="M702.85,435.995c0,2.217,13.255,4.032,29.732,4.032s29.732-1.814,29.732-4.032-13.328-3.965-29.732-3.965S702.85,433.777,702.85,435.995Z" transform="translate(-490.406 224.321)" fill-rule="evenodd" opacity="0.1"/>
    <path id="Path_395" data-name="Path 395" d="M871.2,473.948c-4.321,7.929-14.646,11.088-22.921,15.321a133.773,133.773,0,0,0-27.755,20.16l-34.565,30.307a146.452,146.452,0,0,1-16.33,13.036,194.259,194.259,0,0,0-20.945,13.44c-1.538,1.344-2.856,2.688-4.247,4.1-2.27,2.486-4.247,5.107-6.224,7.728s-3.808,4.838-5.859,7.123a45.586,45.586,0,0,1-7.323,7.123A59.079,59.079,0,0,1,714.92,598.6a35.705,35.705,0,0,1-4.394,1.882c-1.83-3.7-3.514-7.459-5.345-10.886a14.332,14.332,0,0,1,14.646-6.048,50.367,50.367,0,0,0,16.55-8.6,17.1,17.1,0,0,1-1.977-10.953L858.893,459.3a151.746,151.746,0,0,1-33.1-60.479,103.019,103.019,0,0,1,24.825,18.144,78.755,78.755,0,0,1,22.556,38.975A25.482,25.482,0,0,1,871.2,473.948Z" transform="translate(-475.672 34.365)" fill-rule="evenodd" opacity="0.1"/>
    <path id="Path_396" data-name="Path 396" d="M760.274,468.607,740.282,467.2,721.1,465.852a16.446,16.446,0,0,1,1.684-10.012c1.831-4.166,4.247-8.131,1.977-23.856a22.107,22.107,0,0,0-.512-3.494l3.588.6,12.889,2.083v.336a51.893,51.893,0,0,0,2.709,21.638h0C747.019,460.544,753.39,459.2,760.274,468.607Z" transform="translate(-376.175 204.073)" fill="#ffb26c" fill-rule="evenodd"/>
    <path id="Path_397" data-name="Path 397" d="M776.79,451.245a244.718,244.718,0,0,1-28.048.6,259.618,259.618,0,0,1-26.949-2.083,12.063,12.063,0,0,1,2.636-14.918h2.051a39.849,39.849,0,0,0,10.326.6,23.279,23.279,0,0,0,10.326-3.292h0C760.679,443.987,784.113,440.829,776.79,451.245Z" transform="translate(-380.168 225.064)" fill-rule="evenodd" fill="url(#linear-gradient-9)"/>
    <path id="Path_398" data-name="Path 398" d="M799.014,662.337a31.827,31.827,0,0,1-6.884,2.889,31.335,31.335,0,0,1-12.3,1.008,17.906,17.906,0,0,1-3.661-.538,37.1,37.1,0,0,1-4.322-1.075L739.769,508.117c-22.336-50.063-30.9-88.7-25.338-115.85l21.164-1.949,28.487-2.688a303.858,303.858,0,0,1,26.144,113.028,1257.964,1257.964,0,0,1,8.787,161.679Z" transform="translate(-427.584 -29.64)" fill-rule="evenodd" fill="url(#linear-gradient-10)"/>
    <path id="Path_399" data-name="Path 399" d="M796.451,704.226a259.862,259.862,0,0,1-26.949-2.083,12.063,12.063,0,0,1,2.636-14.918h2.051c1.831-4.166,4.247-8.131,1.977-23.855a37.167,37.167,0,0,1-4.321-1.075L739.77,505.789c-22.336-50.063-30.9-88.7-25.338-115.85L735.6,387.99c3.515,7.19-6.957,22.511-6.518,31.113.732,13.439,10.253,25.468,16.331,38.034,9.667,20.159,10.765,42.335,13.108,64.04,1.611,14.112,3.735,28.156,5.859,42.133,4.906,32.457,9.959,64.779,14.646,97.169a7.082,7.082,0,0,0,.586,3.427q.769,5.04,1.538,10.08a69.23,69.23,0,0,0,3.149,13.843,39.348,39.348,0,0,0,2.49,4.906,52.878,52.878,0,0,0,4.687,5.846C793.3,700.6,794.913,702.344,796.451,704.226Z" transform="translate(-427.584 -27.581)" fill-rule="evenodd" opacity="0.1"/>
    <path id="Path_400" data-name="Path 400" d="M723.36,429.94q40.13,53.087,59.1,49.861c7.323-2.822,25.7-36.892,55.509-102.545a23.584,23.584,0,0,0-11.277-7.526l-49.212,75.733c-16.917-35.481-26.217-54.095-35.883-61.151Z" transform="translate(-360.718 -132.025)" fill="#ffb26c" fill-rule="evenodd"/>
    <path id="Path_401" data-name="Path 401" d="M811.466,381.586a97.424,97.424,0,0,0-71.034-8.131,301.005,301.005,0,0,0-28.122,125.19q50.531,26.88,97.325.336Q792.939,449.792,811.466,381.586Z" transform="translate(-430.589 -129.635)" fill-rule="evenodd" fill="url(#linear-gradient-11)"/>
    <path id="Path_402" data-name="Path 402" d="M747.8,371.082l-15.305-3.562c-.3,7.788-5.457,14.721-13.254,17.808,9.593,14.448,19.918,15.792,31.123,4.166A12.7,12.7,0,0,1,747.8,371.082Z" transform="translate(-386.769 -144.666)" fill="#ffb26c" fill-rule="evenodd"/>
    <path id="Path_403" data-name="Path 403" d="M758.234,368.57l-29.293-5.51L720.08,393.77c10.839,10.483,19.114,13.44,24.679,9.408a61.265,61.265,0,0,0,13.475-34.607Z" transform="translate(-381.458 -170.177)" fill="#ffb26c" fill-rule="evenodd"/>
    <path id="Path_404" data-name="Path 404" d="M938.99,460.769c8.495-21.772,7.909-43.612-4.1-61.083-25.851-37.631-94.176-40.79-152.542-6.72s-84.875,91.659-59.024,129.29,94.175,40.79,152.615,6.72a164.248,164.248,0,0,0,43.939-36.556h58.585a5.521,5.521,0,0,0,5.464-3.753,4.943,4.943,0,0,0-2.609-5.789Z" transform="translate(-423.586 -134.429)" fill="url(#linear-gradient-12)"/>
    <path id="Path_405" data-name="Path 405" d="M772.482,432.139a57.857,57.857,0,0,1,2.709-13.843,55.444,55.444,0,0,0,2.124-9.542,9.935,9.935,0,0,0-1.757-6.72,10.431,10.431,0,0,0-8.5-4.636,20.59,20.59,0,0,0-11.789,3.225,25.961,25.961,0,0,0-9.154,8.534,22.915,22.915,0,0,0-3.441,10.954l-21.238.6a36.81,36.81,0,0,1,6.517-20.16,55.932,55.932,0,0,1,18.9-16.665,50.378,50.378,0,0,1,27.608-7.93,24.14,24.14,0,0,1,19.846,10.819,23.14,23.14,0,0,1,4.467,9.61,24.2,24.2,0,0,1,0,8.6c-.513,2.688-1.319,5.846-2.417,9.609a57.261,57.261,0,0,0-2.49,10.483,11.361,11.361,0,0,0,2.271,7.661l-19.407,11.222A19.835,19.835,0,0,1,772.482,432.139Zm22.995,37.7a13.318,13.318,0,0,1-8.714-5.51,10.83,10.83,0,0,1-1.684-9.475,13.658,13.658,0,0,1,6.81-8.131,15.718,15.718,0,0,1,10.911-2.083,12.573,12.573,0,0,1,8.568,5.443,11.26,11.26,0,0,1,1.684,9.609,13.613,13.613,0,0,1-6.664,8.2,15.735,15.735,0,0,1-10.912,1.948Z" transform="translate(-372.858 -96.392)" fill="#fff"/>
    <path id="Path_406" data-name="Path 406" d="M739.046,373.725c10.618-12.633,23.434,3.7,21.31,8.6s-14.646,3.024-21.31-2.486a3.474,3.474,0,0,1,0-6.115Z" transform="translate(-273.073 -136.021)" fill="#ffb26c" fill-rule="evenodd"/>
    <path id="Path_407" data-name="Path 407" d="M830.928,535.958l-5.272,6.317-3.662,4.5c-42.4-22.847-98.789-51.071-110.653-62.024-5.272-9.206-.44-28.492,8.275-48.786h0c12.01-27.686,30.977-57.32,40.79-65.317,13.493,14.043,17.641,33.689,10.838,51.34l-30.025,48.517Z" transform="translate(-450.563 -126.763)" fill="#ffb26c" fill-rule="evenodd"/>
    <path id="Path_408" data-name="Path 408" d="M744.424,399.288a11.5,11.5,0,0,1-2.2,9.652A13.649,13.649,0,0,1,733,414a9.753,9.753,0,0,1-4.907-.6,5.155,5.155,0,0,1-3.515-5.242l3.662-4.5,5.272-6.317S743.984,390.686,744.424,399.288Z" transform="translate(-353.148 11.856)" fill="#ffb26c" fill-rule="evenodd"/>
    <path id="Path_409" data-name="Path 409" d="M767.012,394.5a16.2,16.2,0,0,0,15.671-6.317A25.164,25.164,0,0,0,787,372.259a11.749,11.749,0,0,0-1.318-5.913,14.474,14.474,0,0,0-12.229-5.376,15.457,15.457,0,0,0-4.32,0,14.21,14.21,0,0,0-5.273,2.89,32.631,32.631,0,0,1-10.545,6.72,35.847,35.847,0,0,1-10.4.47,15.654,15.654,0,0,0-9.887,2.352A12.769,12.769,0,0,0,729,384.556a14.263,14.263,0,0,1-.8,6.72c-1.9,3.965-7.323,5.443-9.594,9.341a9.086,9.086,0,0,0,4.76,11.357A32.483,32.483,0,0,0,737.354,415a10.952,10.952,0,0,0,8.349-1.882,5.724,5.724,0,0,0,1.171-5.577,26.51,26.51,0,0,0-2.416-5.51c-1.1-2.217-1.684-5.376.586-6.72a4.219,4.219,0,0,1,4.467.739,7.038,7.038,0,0,1,1.9,4.032,6.322,6.322,0,0,0,.732,2.217,1.959,1.959,0,0,0,2.124.941c1.1-.4,1.171-1.747,1.1-2.889,0-2.554-2.637-9.475,1.245-10.416S763.13,394.5,767.012,394.5Z" transform="translate(-394.41 -183.004)" fill-rule="evenodd"/>
    <path id="Path_410" data-name="Path 410" d="M830.415,496.691v.336a9.748,9.748,0,0,1-4.906-.6,5.155,5.155,0,0,1-3.515-5.241c-42.4-22.847-98.789-51.071-110.653-62.024-5.272-9.206-.44-28.492,8.275-48.786-.366,2.285-.659,4.637-.952,6.72a53.378,53.378,0,0,0,4.687,29.366,76.8,76.8,0,0,0,7.324,11.087A40.5,40.5,0,0,0,741.951,438.7a62.414,62.414,0,0,0,11.571,4.435,147.271,147.271,0,0,1,19.919,8.6,272.225,272.225,0,0,1,42.914,26.41,53.673,53.673,0,0,1,9.446,8.332,18.416,18.416,0,0,1,4.614,10.214Z" transform="translate(-450.563 -71.166)" fill-rule="evenodd" opacity="0.1"/>
    <path id="Path_411" data-name="Path 411" d="M842.317,498.555l-2.929,32.927V533.3l-.659-.471-3.515-2.15A265.343,265.343,0,0,1,789.3,493.716a230.724,230.724,0,0,1-23.947-28.291V447.954h0c.732-23.049,2.636-64.174,7.323-94.884H787.32l-3.369,97.975a168.613,168.613,0,0,1,23.508,15.792C819.835,476.85,830.966,487.937,842.317,498.555Z" transform="translate(-95.209 -227.318)" fill="#ffb26c" fill-rule="evenodd"/>
    <path id="Path_412" data-name="Path 412" d="M825.794,398.156l-6.957,36.489-.805,1.344-3.515-2.15A265.367,265.367,0,0,1,768.6,396.879a70.562,70.562,0,0,1,5.565-11.558A56.921,56.921,0,0,1,786.908,370C799.284,380.013,814.443,387.539,825.794,398.156Z" transform="translate(-74.658 -130.481)" fill="url(#linear-gradient-13)"/>
    <path id="Path_413" data-name="Path 413" d="M835.83,447.9a6.979,6.979,0,0,1-.586,2.016,265.362,265.362,0,0,1-45.916-36.959,230.863,230.863,0,0,1-23.948-28.29s0-6.72,0-17.472a31.364,31.364,0,0,0,1.172,3.7A42.609,42.609,0,0,0,773.07,381.1a113.4,113.4,0,0,0,21.457,20.16,127.639,127.639,0,0,0,26.949,15.052,17.628,17.628,0,0,1,7.324,4.233,14.261,14.261,0,0,1,2.342,4.368,85.374,85.374,0,0,1,3.369,10.55A28.058,28.058,0,0,1,835.83,447.9Z" transform="translate(-95.019 -146.554)" fill-rule="evenodd" opacity="0.1"/>
    <path id="Path_414" data-name="Path 414" d="M821.356,418.353a46.441,46.441,0,0,1-19.846,6.72,51.866,51.866,0,0,1-17.869-.672,37.581,37.581,0,0,1-12.45-5.174,33.791,33.791,0,0,1-10.472-10.752v-.4l7.836-3.293,9.446-3.9,8.056-3.427,3.369-1.344,2.344,1.613,5.419,3.763,23.508,16.4Z" transform="translate(-124.484 18.864)" fill-rule="evenodd" fill="url(#linear-gradient-14)"/>
    <path id="Path_415" data-name="Path 415" d="M797.734,471.933l-9.3,2.419h0a9.084,9.084,0,0,1-1.611.4l-5.712,1.478a15.3,15.3,0,0,0-.586-1.68,431.821,431.821,0,0,1-16.184-55.976c-1.025-4.234-1.831-8.534-2.49-12.634v-3.494l9.667-2.217,7.763-1.814,6.005-1.344,3.588-.874c.659,1.478,1.245,3.091,1.831,4.637a76.371,76.371,0,0,1,2.929,11.357,112,112,0,0,1,1.611,12.23c1.318,14.649.659,29.769,2.856,44.015A4.523,4.523,0,0,0,797.734,471.933Z" transform="translate(-117.339 19.379)" fill="#ffb26c" fill-rule="evenodd"/>
    <path id="Path_416" data-name="Path 416" d="M889.3,444.373a29.065,29.065,0,0,1-12.449,8.937c-19.333,5.443-44.378-3.36-74.842-26.879l23.58,58.933h0a37.973,37.973,0,0,1-20.578-5.04,66.885,66.885,0,0,0-15.745-6.115,42.072,42.072,0,0,0-15.452,0,62.872,62.872,0,0,0-7.983,1.881h0q-13.181-58.664,3.3-84.6,13.548-20.16,127.423,15.859Q899.33,432.21,889.3,444.373Z" transform="translate(-129.227 -48.954)" fill-rule="evenodd" fill="url(#linear-gradient-15)"/>
    <path id="Path_417" data-name="Path 417" d="M810.643,421.778c.586,7.056-22.775,24.8-38.886,30.105a21.685,21.685,0,0,1-9.3,1.411c-7.323-7.123,21.237-24.191,21.53-39.781h0a18.243,18.243,0,0,0,6.3,0,9.127,9.127,0,0,0,1.611-.4h0a20.341,20.341,0,0,0,8.788-5.913v-.336A21.066,21.066,0,0,1,810.643,421.778Z" transform="translate(-121.095 80.352)" fill-rule="evenodd" fill="url(#linear-gradient-16)"/>
    <path id="Path_418" data-name="Path 418" d="M872.288,423.117a29.065,29.065,0,0,1-12.449,8.937C840.5,437.5,815.46,428.694,785,405.175l23.58,58.933h0l.879.6a46.441,46.441,0,0,1-19.846,6.72c1.318,14.649.659,29.769,2.856,44.015v-.336a20.913,20.913,0,0,1,9.081,14.649c.585,7.056-22.775,24.8-38.887,30.1a117.953,117.953,0,0,1,9.448-11.222,50.058,50.058,0,0,0,10.984-27.283,70.268,70.268,0,0,0-4.393-30.709,125.48,125.48,0,0,1-7.324-20.16c0-.538,0-1.143,0-1.68a51.166,51.166,0,0,1,.806-15.993c.438-2.554.951-5.107,1.391-7.661a12.43,12.43,0,0,1,0-1.613,43.258,43.258,0,0,0,0-21.167c-1.538-4.7-4.32-8.937-6.151-13.44a13.878,13.878,0,0,1,12.889-20.966,40.556,40.556,0,0,1,14.646,2.554,131.583,131.583,0,0,1,34.2,16.934,84.742,84.742,0,0,0,23.141,13.91A60.6,60.6,0,0,0,872.288,423.117Z" transform="translate(-112.217 -27.698)" fill-rule="evenodd" opacity="0.1"/>
    <path id="Path_419" data-name="Path 419" d="M830.088,415.724A44.886,44.886,0,0,1,812,425.6a53.371,53.371,0,0,1-17.8,2.418,40.2,40.2,0,0,1-13.255-2.956,34.839,34.839,0,0,1-12.45-8.736v-.336l7.323-4.637,8.422-5.443,7.323-4.7,3-1.949,2.637,1.21,6.078,2.755,26.51,12.029Z" transform="translate(-75.29 36.882)" fill-rule="evenodd" fill="url(#linear-gradient-17)"/>
    <path id="Path_420" data-name="Path 420" d="M819.46,471.946l-8.641,3.965h0a10.457,10.457,0,0,1-1.538.672L804.008,479a12.02,12.02,0,0,1-.953-1.613,452.586,452.586,0,0,1-27.388-52.146c-1.831-3.965-3.515-8.064-4.979-11.961l-.732-1.747a1.7,1.7,0,0,0-.586-1.546l9.007-3.9L785.7,403l5.638-2.352,3.369-1.478c.952,1.344,1.831,2.755,2.71,4.234a85.415,85.415,0,0,1,5.272,10.617c1.538,3.831,2.929,7.728,4.1,11.76,4.174,14.112,6.737,29.1,11.717,42.671A9.1,9.1,0,0,0,819.46,471.946Z" transform="translate(-69.789 36.367)" fill="#ffb26c" fill-rule="evenodd"/>
    <path id="Path_421" data-name="Path 421" d="M898.26,431.722a27.731,27.731,0,0,1-10.4,10.953c-17.942,8.736-43.939,4.368-79.017-13.439l35.224,53.759h0a38.353,38.353,0,0,1-21.237-1.411,72,72,0,0,0-16.77-3.293,42.231,42.231,0,0,0-15.158,2.554,50.114,50.114,0,0,0-7.324,3.226h0c-16.624-36.959-21.384-64.846-14.061-83.662q9.008-22.041,128.375-6.72C902.581,410.017,903.02,422.449,898.26,431.722Z" transform="translate(-89.93 -30.927)" fill-rule="evenodd" fill="url(#linear-gradient-18)"/>
    <path id="Path_422" data-name="Path 422" d="M814.633,421.972c1.977,6.72-17.355,28.29-32.075,36.22a19.491,19.491,0,0,1-8.861,3.024c-8.568-5.712,15.964-27.417,12.962-42.805h.366a18.8,18.8,0,0,0,6.224-.807,10.418,10.418,0,0,0,1.538-.672h0a19.441,19.441,0,0,0,7.323-7.392h0a22.346,22.346,0,0,1,12.523,12.432Z" transform="translate(-53.977 95.682)" fill-rule="evenodd" fill="url(#linear-gradient-19)"/>
    <path id="Path_423" data-name="Path 423" d="M878.59,410.126a27.732,27.732,0,0,1-10.4,10.953c-17.942,8.736-43.939,4.368-79.016-13.439L824.4,461.4h0l.952.471a44.885,44.885,0,0,1-18.087,9.879c4.174,14.111,6.737,29.1,11.716,42.67h0a22.127,22.127,0,0,1,11.937,12.835c1.977,6.719-17.356,28.29-32.075,36.22,1.758-4.234,4.76-8.534,6.957-12.633a48.629,48.629,0,0,0,5.272-28.627,71.375,71.375,0,0,0-10.692-29.433,136.944,136.944,0,0,1-11.2-18.278,1.811,1.811,0,0,0-.586-1.613,50.4,50.4,0,0,1-2.49-15.859V449.3a11.967,11.967,0,0,1,0-1.612,43.728,43.728,0,0,0-4.54-20.764c-2.417-4.368-6.079-8.064-8.789-12.3a13.471,13.471,0,0,1,8.348-22.713,39.83,39.83,0,0,1,15.233,0,133.436,133.436,0,0,1,36.616,10.752,91.983,91.983,0,0,0,25.631,9.676A58.774,58.774,0,0,0,878.59,410.126Z" transform="translate(-70.259 -9.33)" fill-rule="evenodd" opacity="0.1"/>
    <path id="Path_424" data-name="Path 424" d="M863.787,507.658a80.307,80.307,0,0,1-45.843-2.486A143.02,143.02,0,0,1,772.1,478.292c34.565-25.132,5.493-40.655,8.055-97.3q33.686-21.033,71.181.538a22.132,22.132,0,0,1,1.245,3.024h0Q873.893,432.194,863.787,507.658Z" transform="translate(-52.527 -127.022)" fill-rule="evenodd" fill="url(#linear-gradient-20)"/>
    <path id="Path_425" data-name="Path 425" d="M824.246,495.673a80.306,80.306,0,0,1-45.843-2.486,2.6,2.6,0,0,1,0-1.008c2.93-7.257,12.23-10.079,18.894-14.85,10.557-8.713,15.991-21.5,14.646-34.473a137.679,137.679,0,0,0-9.374-37.362,36.157,36.157,0,0,1-2.123-9.139,31.611,31.611,0,0,1,10.472-21.638,14.548,14.548,0,0,1,2.124-2.015h0Q834.352,420.209,824.246,495.673Z" transform="translate(-12.987 -115.037)" fill-rule="evenodd" opacity="0.1"/>
    <path id="Path_426" data-name="Path 426" d="M775.86,389.355c4.028,7.257,11.864,6.72,23.654-1.075a32.624,32.624,0,0,1-9.667-20.63l-13.621,1.881C780.4,377.864,780.327,384.517,775.86,389.355Z" transform="translate(-28.752 -143.923)" fill="#ffa45a" fill-rule="evenodd"/>
    <path id="Path_427" data-name="Path 427" d="M782.668,401.023c4.467,4.032,12.229.6,23.141-10.281L798.046,364.4l-23.068,8.064a34.632,34.632,0,0,0,7.689,28.559Z" transform="translate(-37.903 -162.512)" fill="#ffb26c" fill-rule="evenodd"/>
    <path id="Path_428" data-name="Path 428" d="M758.033,511.588a20.082,20.082,0,0,1,.586-17.606,22.043,22.043,0,0,1,13.988-11.625,28.281,28.281,0,0,1,20.065,1.411A25.686,25.686,0,0,1,807.318,496.8a19.77,19.77,0,0,1-.586,17.337,22.966,22.966,0,0,1-14.207,11.827c-13.712,3.966-28.468-2.252-34.126-14.38ZM830.02,353.47,876.3,373.025l-60.05,100.8-30.9-13.036Z" transform="translate(-152.554 -225.03)" fill="url(#linear-gradient-21)"/>
    <path id="Path_429" data-name="Path 429" d="M930.229,407.892a80.3,80.3,0,0,1-15.965,21.571l-.586.47a235.381,235.381,0,0,1-46.941,34.943c-14.646,7.257-56.535-25.132-94.542-50.8h0l-10.545-6.72,6.884-11.894L861.758,443.1c7.323-10.55,14.646-22.243,21.164-32.793a8.69,8.69,0,0,0,.732-1.008c11.79-17.74,22.7-32.793,31.123-36.354a8.5,8.5,0,0,1,3.515-.739,7.562,7.562,0,0,1,2.2,1.075c7.323,4.166,4.833,12.3,6.591,23.049a37.072,37.072,0,0,0,3.149,11.558Z" transform="translate(-118.604 -117.84)" fill="#ffb26c" fill-rule="evenodd"/>
    <path id="Path_430" data-name="Path 430" d="M828.553,392.561a52.649,52.649,0,0,1-1.391,15.389,78.551,78.551,0,0,1-14.647,22.982,20.16,20.16,0,0,0-2.123-.941c-2.416-1.008-5.272-2.217-8.349-3.831A88.468,88.468,0,0,1,779.195,410.3c-.439-.47-.879-.874-1.245-1.344,11.717-17.808,24.313-32.591,33.1-36.018a8.5,8.5,0,0,1,3.515-.739,7.569,7.569,0,0,1,2.2,1.075c7.52,3.929,12.056,11.35,11.79,19.286Z" transform="translate(-15.536 -117.897)" fill="url(#linear-gradient-22)"/>
    <path id="Path_431" data-name="Path 431" d="M778.112,383.362c-.512-8.4-4.614-11.357-4.98-6.72-.805,9.408-3.369-3.158-8.714-2.285s-8.349,12.566,6.81,20.966A17.217,17.217,0,0,0,778.112,383.362Z" transform="translate(-128.622 -105.809)" fill="#ffb26c" fill-rule="evenodd"/>
    <path id="Path_432" data-name="Path 432" d="M769.786,354.772c-6.078,7.257-6.078,13.977,6.591,15.12s11.132-10.416,8.129-15.052S769.786,354.772,769.786,354.772Z" transform="translate(-92.175 -229.087)" fill="#ffb26c" fill-rule="evenodd"/>
    <path id="Path_433" data-name="Path 433" d="M796.863,384.273a8.946,8.946,0,0,0,.879,9.677v-3.226c0-1.747,1.025-4.032,2.929-3.9a2.422,2.422,0,0,1,1.978,2.889,12.8,12.8,0,0,1-1.392,3.427,10.116,10.116,0,0,0,1.758,11.222,11.65,11.65,0,0,0,11.864,2.822,6.273,6.273,0,0,0,2.562-1.613,7.5,7.5,0,0,0,1.025-5.779A14.644,14.644,0,0,1,820,390.658c1.319-2.285.953-3.36,2.271-5.645a6.554,6.554,0,0,0,.439-6.72c-1.171-2.688-3.075-4.166-6.005-3.024-1.757.672-1.831-.336-3.734-.6s-2.49-1.612-2.783-3.024a19.364,19.364,0,0,0-.951-4.166,9.755,9.755,0,0,0-6.079-3.7,6.967,6.967,0,0,0-3.661-.471c-3.3.672-3.735,2.553-7.323,3.024-2.2.336-3.442-.941-5.639-1.546s-5.053-.874-6.445.47-5.785,3.7-5.126,5.376a34.17,34.17,0,0,1,2.05,4.368c0,1.478-1.61,2.89-2.562,4.1-3.222,4.032,2.783,8.534,6.3,9.206a25.871,25.871,0,0,0,16.111-4.032Z" transform="translate(-43.457 -169.148)" fill-rule="evenodd"/>
    <path id="Path_434" data-name="Path 434" d="M922.515,375.29a52.649,52.649,0,0,1-1.391,15.389,78.552,78.552,0,0,1-14.647,22.982,20.161,20.161,0,0,0-2.123-.941,235.243,235.243,0,0,1-46.721,34.943c-14.646,7.257-56.535-25.132-94.542-50.8a5.1,5.1,0,0,1,.878.4,263.056,263.056,0,0,1,61.808,36.153,31.073,31.073,0,0,0,9.74,5.981,23.125,23.125,0,0,0,7.763.739,59.58,59.58,0,0,0,29.292-9.61,107.611,107.611,0,0,0,22.482-20.16c.513-.672,1.1-1.277,1.538-1.881a195.127,195.127,0,0,0,19.626-26.879c.513-.874,1.025-1.814,1.684-2.755C918.78,376.769,920.318,374.82,922.515,375.29Z" transform="translate(-109.498 -100.627)" fill-rule="evenodd" opacity="0.1"/>
  </g>
</svg>
